<mxfile host="app.diagrams.net" modified="2024-09-05T21:06:01.153Z" agent="Mozilla/5.0 (Windows NT 10.0; Win64; x64) AppleWebKit/537.36 (KHTML, like Gecko) Chrome/128.0.0.0 Safari/537.36" version="24.5.5" etag="-ijem1J_xTGWPNjH1RcD" type="github">
  <diagram name="PÃ¡gina-1" id="DAZWLN8ZLhXkaJL8mUBH">
    <mxGraphModel>
      <root>
        <mxCell id="0" />
        <mxCell id="1" parent="0" />
      </root>
    </mxGraphModel>
  </diagram>
</mxfile>
